<?xml version="1.0" encoding="UTF-8"?>
<svg width="752pt" height="752pt" version="1.1" viewBox="0 0 752 752" xmlns="http://www.w3.org/2000/svg">
 <g>
  <path d="m379.55 457.84 64.82-71.258v-0.003907c3.2109-3.3711 3.1484-8.6953-0.14844-11.988-3.293-3.293-8.6133-3.3594-11.988-0.14453l-71.035 64.82c-3.6836 3.3633-5.1211 8.5352-3.6992 13.32v1.1094l-21.238 21.238-1.2578-0.66406v-0.003907c-4.5352-2.3281-9.6953-3.1641-14.734-2.3789-5.0391 0.78516-9.6992 3.1445-13.312 6.7461-2.3086 2.207-2.3906 5.8672-0.18359 8.1758 2.207 2.3086 5.8672 2.3906 8.1758 0.18359 5.0898-5.0859 13.34-5.0859 18.426 0 5.0898 5.0898 5.0898 13.34 0 18.426-1.2188 1.0078-1.9609 2.4883-2.0352 4.0703-0.074219 1.582 0.52344 3.1211 1.6406 4.2422 1.1211 1.1172 2.6602 1.7148 4.2422 1.6406 1.582-0.074219 3.0625-0.8125 4.0703-2.0352 3.7109-3.7578 6.0938-8.625 6.7852-13.859 0.69531-5.2344-0.33594-10.551-2.9375-15.148l-0.73828-1.2578 21.238-21.238h1.0352v0.003906c4.6992 1.1484 9.6484-0.39062 12.875-3.9961z"/>
  <path d="m605.39 433.94c-8.8789-54.434-36.832-103.94-78.855-139.66-42.023-35.719-95.379-55.332-150.54-55.332-55.152 0-108.51 19.613-150.53 55.332-42.023 35.723-69.977 85.227-78.859 139.66-1.2773 8.1602-2.0938 16.387-2.4414 24.641h95.012c0.63672-8.332 2.0742-16.586 4.293-24.641 10.551-39.125 37.852-71.586 74.586-88.691s79.152-17.105 115.89 0c36.734 17.105 64.031 49.566 74.586 88.691 2.2188 8.0547 3.6562 16.309 4.2891 24.641h95.234c-0.41797-8.2578-1.3086-16.484-2.6641-24.641zm-388.93-46.469 9.5469-9.5469h-0.003907c0.79688-0.79688 2.0898-0.79688 2.8867 0s0.79688 2.0898 0 2.8867l-9.5469 9.4727 0.003906-0.003906c-0.79687 0.79688-2.0898 0.79688-2.8867 0s-0.79688-2.0859 0-2.8828zm-17.391-18.871c0-1.125 0.91016-2.0352 2.0352-2.0352s2.0352 0.91016 2.0352 2.0352v13.32c0 1.125-0.91016 2.0352-2.0352 2.0352s-2.0352-0.91016-2.0352-2.0352zm-25.75 9.3242c0.375-0.39453 0.89844-0.61719 1.4414-0.61719 0.54688 0 1.0664 0.22266 1.4453 0.61719l9.5469 9.5469h-0.003906c0.79688 0.79688 0.79688 2.0859 0 2.8828s-2.0859 0.79688-2.8828 0l-9.5469-9.543c-0.39453-0.37891-0.61719-0.89844-0.61719-1.4453 0-0.54297 0.22266-1.0664 0.61719-1.4414zm-11.469 27.676c0-1.1055 0.89453-2 1.9961-2h13.469c1.1211 0 2.0352 0.91016 2.0352 2.0352s-0.91406 2.0352-2.0352 2.0352h-13.469c-0.54297 0-1.0625-0.21875-1.4375-0.60938-0.37891-0.39062-0.58203-0.91797-0.55859-1.4609zm23.828 18.203-9.4727 9.6172c-0.79688 0.79688-2.0898 0.79688-2.8867 0s-0.79688-2.0859 0-2.8828l9.5469-9.4727c0.79688-0.79688 2.0859-0.79688 2.8828 0s0.79688 2.0898 0 2.8867zm15.391 21.016c-0.57422 0-1.1172-0.23828-1.5-0.66406-0.38281-0.42188-0.5625-0.99219-0.5-1.5586v-13.172c0-1.1211 0.91016-2.0352 2.0352-2.0352s2.0352 0.91406 2.0352 2.0352v13.172c0.089844 0.59375-0.089843 1.1953-0.49219 1.6367-0.40234 0.44531-0.98047 0.6875-1.5781 0.66016zm0-20.422v-0.003907c-4.9883 0-9.7656-1.9805-13.293-5.5039-3.5234-3.5234-5.5039-8.3047-5.5039-13.289 0-4.9844 1.9805-9.7656 5.5039-13.293 3.5273-3.5234 8.3047-5.5039 13.293-5.5039 4.9844 0 9.7656 1.9805 13.289 5.5039 3.5234 3.5273 5.5039 8.3086 5.5039 13.293 0.019531 4.9961-1.9531 9.7969-5.4766 13.336-3.5273 3.543-8.3203 5.5312-13.316 5.5312zm27.75 8.8789-0.003907-0.003906c-0.375 0.39453-0.89844 0.61719-1.4414 0.61719-0.54688 0-1.0664-0.22266-1.4453-0.61719l-9.5469-9.4727 0.003906 0.003907c-0.79688-0.79688-0.79688-2.0898 0-2.8867s2.0898-0.79688 2.8867 0l9.5469 9.5469h-0.003907c0.41797 0.37891 0.65625 0.91406 0.65625 1.4766 0 0.56641-0.23828 1.1016-0.65625 1.4805zm9.4727-25.676-13.473-0.003906c-1.1211 0-2.0352-0.91016-2.0352-2.0352s0.91406-2.0352 2.0352-2.0352h13.469c1.125 0 2.0352 0.91016 2.0352 2.0352s-0.91016 2.0352-2.0352 2.0352zm164.2-94.793c-3.4414 0.25391-6.8945-0.32812-10.062-1.7031-0.52344-0.32031-1.1797-0.32031-1.7031 0-5.2031 4.4805-12.062 6.543-18.871 5.6836-6.8125-0.85937-12.941-4.5664-16.871-10.195-0.33594-0.47266-0.90234-0.72656-1.4766-0.66797h-2.3711c-7.6133 0.22656-14.766-3.6289-18.77-10.109-4-6.4805-4.2422-14.605-0.62891-21.312 3.6133-6.707 10.527-10.977 18.141-11.199 1.5508-0.16797 3.1133-0.16797 4.6641 0 0.58594 0.10156 1.1836-0.125 1.5547-0.59375 6.2773-8.0781 16.379-12.207 26.52-10.832 10.141 1.3711 18.781 8.0352 22.688 17.492 0.20312 0.47266 0.61328 0.82812 1.1094 0.96094 6.5078 1.7734 11.797 6.5234 14.25 12.805 2.457 6.2852 1.793 13.359-1.7891 19.074-3.582 5.7188-9.6562 9.4023-16.383 9.9297zm131.64 100.56c-2.5469 0.003906-5.0664-0.52734-7.3984-1.5547-3.2656-1.4492-6.0391-3.8164-7.9805-6.8086-1.9453-2.9961-2.9766-6.4922-2.9727-10.062 0.019531-2.5234 0.47266-5.0273 1.332-7.3984 1.0352-2.6172 2.375-5.1016 3.9961-7.4023l11.988-18.941c0.21094-0.37109 0.60938-0.59766 1.0352-0.59375 0.46484 0 0.89063 0.25781 1.1094 0.66797l11.988 18.203c3.2773 4.4258 5.1328 9.7383 5.3281 15.242 0.042968 0.73828 0.042968 1.4805 0 2.2188-0.52734 4.4961-2.6875 8.6367-6.0742 11.641-3.3828 3-7.7539 4.6523-12.277 4.6406zm48.469 20.867c-0.52734 4.4922-2.6875 8.6328-6.0742 11.637-3.3828 3-7.7539 4.6523-12.277 4.6406-2.5469 0.003906-5.0703-0.52344-7.3984-1.5547-3.2227-1.4961-5.9414-3.8906-7.832-6.8984-1.8906-3.0039-2.8711-6.4961-2.8242-10.047 0.019532-2.5234 0.46875-5.0234 1.332-7.3984 1.0352-2.6172 2.375-5.1016 3.9961-7.3984l11.766-19.02c0.21094-0.36719 0.60938-0.59375 1.0352-0.58984 0.46484 0 0.89062 0.25391 1.1094 0.66406l11.988 18.203c3.2773 4.4258 5.1328 9.7422 5.3281 15.246 0.003906 0.83984-0.042969 1.6797-0.14844 2.5156z"/>
 </g>
</svg>
