<?xml version="1.0" encoding="UTF-8"?>
<svg width="752pt" height="752pt" version="1.1" viewBox="0 0 752 752" xmlns="http://www.w3.org/2000/svg">
 <path d="m337.05 467.35c-13.203 47.539-38.371 105.36-95.863 105.36-42.785 0-77.469-34.684-77.469-77.469 0-56.102 54.121-80.637 100.53-94.477 70.43-21.008 93.164-6.7188 72.805 66.582zm235.34 18.172c0 6.3984-5.1875 11.586-11.586 11.586-6.3984 0-11.586-5.1875-11.586-11.586 0-6.3984 5.1875-11.586 11.586-11.586 6.3984 0 11.586 5.1875 11.586 11.586zm-4.7344 0c0-3.7852-3.0664-6.8516-6.8516-6.8516-3.7852 0-6.8516 3.0664-6.8516 6.8516 0 3.7852 3.0664 6.8516 6.8516 6.8516 3.7852 0 6.8516-3.0664 6.8516-6.8516zm-36.914-274.57c0 6.3984-5.1875 11.586-11.586 11.586s-11.586-5.1875-11.586-11.586 5.1875-11.586 11.586-11.586 11.586 5.1875 11.586 11.586zm-4.7344 0c0-3.7852-3.0664-6.8516-6.8516-6.8516s-6.8516 3.0664-6.8516 6.8516 3.0664 6.8516 6.8516 6.8516 6.8516-3.0664 6.8516-6.8516zm-62.852-27.301c2.668 2.668 2.668 6.9922 0 9.6602s-6.9922 2.668-9.6602 0c-2.668-2.668-2.668-6.9922 0-9.6602 2.668-2.668 6.9922-2.668 9.6602 0zm-175.38 24.113c2.668 2.668 2.668 6.9922 0 9.6602s-6.9922 2.668-9.6602 0c-2.668-2.668-2.668-6.9922 0-9.6602 2.668-2.668 6.9922-2.668 9.6602 0zm300.51 161.02c0 6.3984-5.1875 11.586-11.586 11.586s-11.586-5.1875-11.586-11.586c0-6.3984 5.1875-11.586 11.586-11.586s11.586 5.1875 11.586 11.586zm-4.7344 0c0-3.7852-3.0664-6.8516-6.8516-6.8516s-6.8516 3.0664-6.8516 6.8516 3.0664 6.8516 6.8516 6.8516 6.8516-3.0664 6.8516-6.8516zm-147.89-32.609c0 6.3984-5.1875 11.586-11.586 11.586-6.3984 0-11.586-5.1875-11.586-11.586 0-6.3984 5.1875-11.586 11.586-11.586 6.3984 0 11.586 5.1875 11.586 11.586zm-4.7344 0c0-3.7852-3.0664-6.8516-6.8516-6.8516-3.7852 0-6.8516 3.0664-6.8516 6.8516 0 3.7852 3.0664 6.8516 6.8516 6.8516 3.7852 0 6.8516-3.0664 6.8516-6.8516zm-195.16 2.3281c0 6.3984-5.1875 11.586-11.586 11.586-6.3984 0-11.586-5.1875-11.586-11.586 0-6.3984 5.1875-11.586 11.586-11.586 6.3984 0 11.586 5.1875 11.586 11.586zm-4.7344 0c0-3.7852-3.0664-6.8516-6.8516-6.8516-3.7852 0-6.8516 3.0664-6.8516 6.8516s3.0664 6.8516 6.8516 6.8516c3.7852 0 6.8516-3.0664 6.8516-6.8516zm-28.152 38.91c2.668 2.668 2.668 6.9922 0 9.6602s-6.9922 2.668-9.6602 0c-2.668-2.668-2.668-6.9922 0-9.6602 2.668-2.668 6.9922-2.668 9.6602 0zm171.64-15.789c2.668 2.668 2.668 6.9922 0 9.6602-2.668 2.668-6.9922 2.668-9.6602 0-2.668-2.668-2.668-6.9922 0-9.6602s6.9922-2.668 9.6602 0zm197.57-43.215c2.668 2.668 2.668 6.9922 0 9.6602-2.668 2.668-6.9922 2.668-9.6602 0-2.668-2.668-2.668-6.9922 0-9.6602 2.668-2.668 6.9922-2.668 9.6602 0zm-76.02-33.828c0 10.359-8.3984 18.762-18.762 18.762-10.359 0-18.762-8.3984-18.762-18.762 0-10.359 8.3984-18.762 18.762-18.762 10.359 0 18.762 8.3984 18.762 18.762zm-4.7344 0c0-7.7461-6.2773-14.023-14.023-14.023s-14.023 6.2773-14.023 14.023c0 7.7461 6.2773 14.023 14.023 14.023s14.023-6.2773 14.023-14.023zm-181.71 49.918c0 10.359-8.3984 18.762-18.762 18.762-10.359 0-18.762-8.3984-18.762-18.762 0-10.359 8.3984-18.762 18.762-18.762 10.359 0 18.762 8.3984 18.762 18.762zm-18.762-14.023c-7.7461 0-14.023 6.2773-14.023 14.023s6.2773 14.023 14.023 14.023c7.7461 0 14.023-6.2773 14.023-14.023s-6.2773-14.023-14.023-14.023zm108.59 190.95c0 10.359-8.3984 18.762-18.762 18.762-10.359 0-18.762-8.3984-18.762-18.762 0-10.359 8.3984-18.762 18.762-18.762 10.359 0 18.762 8.3984 18.762 18.762zm-4.7344 0c0-7.7461-6.2773-14.023-14.023-14.023-7.7461 0-14.023 6.2773-14.023 14.023s6.2773 14.023 14.023 14.023c7.7461 0 14.023-6.2773 14.023-14.023zm-26.172-275.37c4.332-0.34375 8.3711 3.7188 8.043 8.043-0.35156 4.4102-5.6758 9.7891-10.105 10.117-4.293 0.33203-8.3516-3.7539-8.0352-8.0352 0.3125-4.4219 5.6992-9.7578 10.098-10.125zm-6.2773 10.473c-0.49609 2.3242 1.5352 4.3594 3.8594 3.8594 2.4492-0.51562 6.1172-4.2031 6.6328-6.6484 0.49219-2.3594-1.4961-4.3984-3.8672-3.8672-2.4141 0.54688-6.1328 4.2188-6.6289 6.6523zm2.5625 18.645c4.3242-0.33203 8.3945 3.6992 8.0625 8.0352-0.32422 4.4062-5.7266 9.8281-10.137 10.141-4.3125 0.32031-8.3594-3.7461-8.043-8.0547 0.33984-4.4258 5.6992-9.7656 10.117-10.117zm-6.2656 10.488c-0.44531 2.332 1.5156 4.4297 3.8477 3.9297 2.3906-0.54297 6.1758-4.3359 6.6758-6.7422 0.48438-2.3164-1.5625-4.3672-3.8789-3.8789-2.4727 0.53125-6.1367 4.2109-6.6406 6.6953zm-10.234-8.6758c-1.3984 0.39062-2.6055-2.9258-0.83203-3.3633l35.027-10.527c2.3555-0.53125 3.168 2.6133 0.83203 3.3633zm53.426-6.5391c0.81641-1.6719 3.3594-0.42969 2.543 1.2422-10.379 21.109-25.391 46.605-53.004 41.438-1.832-0.34375-1.3125-3.1289 0.52344-2.7852 26.012 4.8672 40.223-20.129 49.941-39.895zm15.617-6.4844c-5.8203 19.52-15.688 39.805-25.168 49.285-19.348 19.348-50.742 19.352-70.09 0-19.348-19.348-19.352-50.742 0-70.09 9.4805-9.4805 29.77-19.348 49.285-25.168 47.562-14.188 60.16-1.5898 45.973 45.973zm-4.5312-1.3516c13.098-43.91 3.8203-53.188-40.09-40.09-18.859 5.625-38.34 15.035-47.289 23.984-17.512 17.512-17.512 45.883 0 63.395 17.512 17.512 45.883 17.512 63.395 0 8.9492-8.9492 18.359-28.43 23.984-47.289zm58.18 144.29c5.0469-0.40234 9.7578 4.332 9.3711 9.3711-0.41016 5.1406-6.6133 11.41-11.777 11.793-5.0039 0.38672-9.7344-4.375-9.3633-9.3633 0.36328-5.1562 6.6406-11.375 11.77-11.801zm-7.3164 12.207c-0.58203 2.707 1.7891 5.0781 4.5 4.5 2.8555-0.59766 7.1289-4.8984 7.7305-7.7461 0.57422-2.75-1.7422-5.125-4.5078-4.5078-2.8125 0.63672-7.1484 4.918-7.7227 7.7539zm2.9844 21.73c5.0391-0.38672 9.7852 4.3086 9.3945 9.3633-0.37891 5.1367-6.6719 11.453-11.816 11.816-5.0234 0.37109-9.7422-4.3672-9.3711-9.3867 0.39844-5.1562 6.6445-11.383 11.793-11.793zm-7.3008 12.223c-0.51953 2.7188 1.7656 5.1602 4.4844 4.5781 2.7852-0.63281 7.1992-5.0547 7.7812-7.8594 0.56641-2.6992-1.8203-5.0898-4.5234-4.5234-2.8828 0.61719-7.1523 4.9102-7.7383 7.8047zm-11.93-10.113c-1.6289 0.45312-3.0391-3.4102-0.97266-3.918l40.824-12.27c2.7461-0.62109 3.6914 3.0469 0.97266 3.918zm65.848-7.3945c0.81641-1.6719 3.3594-0.42969 2.543 1.2422-12.949 26.336-31.695 58.285-66.168 51.836-0.76953-0.14453-1.2773-0.88281-1.1328-1.6523 0.14453-0.76953 0.88281-1.2773 1.6523-1.1328 32.863 6.1484 50.816-25.305 63.102-50.293zm18.707-8.4766c-10.992 36.859-30.5 79.684-75.031 79.684-34.039 0-61.629-27.59-61.629-61.629 0-44.531 42.824-64.035 79.684-75.031 59.258-17.676 74.648-2.2812 56.977 56.977zm-4.5312-1.3516c16.586-55.605 4.5117-67.68-51.094-51.094-34.52 10.297-76.297 28.523-76.297 70.496 0 31.422 25.469 56.895 56.895 56.895 41.977 0 60.203-41.777 70.496-76.297zm-268.48 30.848c6.4375-0.51562 12.445 5.5273 11.953 11.953-0.52344 6.5586-8.4336 14.555-15.02 15.039-6.3828 0.49219-12.414-5.582-11.941-11.941 0.46484-6.5742 8.4727-14.504 15.008-15.051zm-9.332 15.566c-0.73828 3.4531 2.2812 6.4766 5.7383 5.7383 3.6445-0.76562 9.0898-6.2461 9.8594-9.8828 0.73437-3.5078-2.2227-6.5352-5.7461-5.7461-3.582 0.8125-9.1172 6.2695-9.8516 9.8906zm3.8086 27.715c6.4297-0.49219 12.48 5.4961 11.984 11.941-0.48047 6.5508-8.5078 14.609-15.07 15.07-6.4102 0.47266-12.422-5.5703-11.953-11.973 0.50781-6.5742 8.4727-14.516 15.039-15.039zm-9.3125 15.59c-0.66016 3.4688 2.25 6.582 5.7188 5.8398 3.5508-0.80469 9.1797-6.4453 9.9219-10.023 0.72266-3.4453-2.3242-6.4883-5.7695-5.7695-3.6758 0.78906-9.125 6.2617-9.8711 9.9531zm-15.211-12.898c-2.0742 0.57812-3.875-4.3477-1.2383-4.9961l52.066-15.648c3.5-0.78906 4.707 3.8867 1.2383 4.9961zm83.945-9.2734c0.81641-1.6719 3.3594-0.42969 2.543 1.2422-16.32 33.195-39.973 73.617-83.441 65.484-1.832-0.34375-1.3125-3.1289 0.52344-2.7852 41.863 7.832 64.719-32.09 80.375-63.941zm19.602-17.184c19.328-69.59 0.046876-80.758-66.906-60.789-44.055 13.141-97.141 36.418-97.141 89.945 0 40.172 32.562 72.73 72.73 72.73 54.965 0 78.762-56.688 91.316-101.88z" fill="#3b6af9"/>
</svg>
