<?xml version="1.0" encoding="UTF-8"?>
<svg width="752pt" height="752pt" version="1.1" viewBox="0 0 752 752" xmlns="http://www.w3.org/2000/svg">
 <g fill="#12b0fb">
  <path d="m390.35 448.32c-19.559 0-35.473-15.914-35.473-35.473 0-11.508 5.5391-22.164 14.871-28.84v-59.719c0-11.367 9.2344-20.602 20.648-20.602 11.414 0 20.648 9.2344 20.648 20.602v59.719c9.3281 6.6758 14.871 17.332 14.871 28.84-0.046875 19.562-15.961 35.473-35.566 35.473zm0-137.91c-7.6719 0-13.922 6.25-13.922 13.875v63.316l-1.5625 0.99609c-8.3359 5.3516-13.309 14.398-13.309 24.246 0 15.863 12.93 28.793 28.793 28.793 15.863 0 28.793-12.93 28.793-28.793 0-9.8516-4.9727-18.895-13.309-24.246l-1.5625-0.99609v-63.316c0-7.6719-6.25-13.875-13.922-13.875z"/>
  <path d="m407.45 412.85c0 9.4258-7.625 17.051-17.051 17.051s-17.051-7.625-17.051-17.051c0-9.4258 7.625-17.051 17.051-17.051 9.4297 0 17.051 7.625 17.051 17.051"/>
  <path d="m390.35 416.21c-1.8477 0-3.3633-1.5156-3.3633-3.3633v-36.844c0-1.8477 1.5156-3.3633 3.3633-3.3633 1.8477 0 3.3633 1.5156 3.3633 3.3633v36.844c0 1.8477-1.4688 3.3633-3.3633 3.3633z"/>
  <path d="m358.24 378.42c-1.2305 0-2.2266-0.99609-2.2266-2.2266v-69.145c0-1.2305 0.99609-2.2266 2.2266-2.2266 1.2305 0 2.2266 0.99609 2.2266 2.2266v69.145c0 1.2305-0.99609 2.2266-2.2266 2.2266z"/>
  <path d="m358.24 324.33c-0.56641 0-1.1367-0.23828-1.5625-0.66406l-8.668-8.668c-0.85156-0.85156-0.85156-2.2734 0-3.1719 0.85156-0.85156 2.2734-0.85156 3.1719 0l8.668 8.668c0.85156 0.85156 0.85156 2.2734 0 3.1719-0.47266 0.47656-1.043 0.66406-1.6094 0.66406z"/>
  <path d="m349.57 371.93c-0.56641 0-1.1367-0.23828-1.5625-0.66406-0.85156-0.85156-0.85156-2.2734 0-3.1719l8.668-8.668c0.85156-0.85156 2.2734-0.85156 3.1719 0 0.89844 0.85156 0.85156 2.2734 0 3.1719l-8.6641 8.668c-0.47656 0.47266-1.043 0.66406-1.6133 0.66406z"/>
  <path d="m358.24 343.7c-0.37891 0-0.75781-0.09375-1.0898-0.28516l-29.93-17.145c-1.0898-0.61719-1.4219-1.9883-0.85156-3.0781 0.56641-1.0898 1.9883-1.4688 3.0781-0.85156l29.93 17.145c1.0898 0.61719 1.4219 1.9883 0.85156 3.0781-0.47266 0.75781-1.2305 1.1367-1.9883 1.1367z"/>
  <path d="m329.54 337.26c-0.99609 0-1.8945-0.66406-2.1797-1.6562-0.33203-1.1836 0.37891-2.4141 1.5625-2.7461l9.6602-2.5586-2.6055-9.6602c-0.33203-1.1836 0.37891-2.4141 1.5625-2.7461 1.1836-0.33203 2.4141 0.37891 2.7461 1.5625l3.1719 11.793c0.14062 0.56641 0.09375 1.1836-0.23828 1.7031-0.28516 0.51953-0.80469 0.89844-1.375 1.043l-11.793 3.1719c-0.13281 0.046875-0.32031 0.09375-0.51172 0.09375z"/>
  <path d="m328.31 361.13c-0.75781 0-1.5156-0.37891-1.9414-1.0898-0.61719-1.0898-0.28516-2.4609 0.80469-3.0781l29.93-17.43c1.0898-0.61719 2.4609-0.23828 3.0781 0.80469 0.61719 1.0898 0.28516 2.4609-0.80469 3.0781l-29.93 17.43c-0.37891 0.1875-0.75781 0.28516-1.1367 0.28516z"/>
  <path d="m338.16 365.39c-0.1875 0-0.37891-0.046875-0.56641-0.09375-1.1836-0.33203-1.8945-1.5625-1.5625-2.7461l2.5586-9.6602-9.6602-2.6055c-1.1836-0.33203-1.8945-1.5625-1.5625-2.7461 0.33203-1.1836 1.5625-1.8945 2.7461-1.5625l11.793 3.1719c1.1836 0.33203 1.8945 1.5625 1.5625 2.7461l-3.1719 11.793c-0.24609 1.0859-1.1445 1.7031-2.1367 1.7031z"/>
  <path d="m358.2 324.33c-0.56641 0-1.1367-0.23828-1.5625-0.66406-0.85156-0.85156-0.85156-2.2734 0-3.1719l7.4336-7.4336c0.85156-0.85156 2.2734-0.85156 3.1719 0 0.85156 0.85156 0.85156 2.2734 0 3.1719l-7.4336 7.4336c-0.47266 0.47656-1.043 0.66406-1.6094 0.66406z"/>
  <path d="m365.77 370.89c-0.56641 0-1.1367-0.23828-1.5625-0.66406l-7.5781-7.5781c-0.85156-0.85156-0.85156-2.2734 0-3.1719 0.85156-0.85156 2.2734-0.85156 3.1719 0l7.5781 7.5781c0.85156 0.85156 0.85156 2.2734 0 3.1719-0.42578 0.42578-0.99609 0.66406-1.6094 0.66406z"/>
  <path d="m358.2 343.7c-0.75781 0-1.5156-0.42578-1.9414-1.1367-0.61719-1.0898-0.23828-2.4609 0.85156-3.0781l7.4844-4.2617c1.0898-0.61719 2.4609-0.23828 3.0781 0.85156 0.61719 1.0898 0.23828 2.4609-0.85156 3.0781l-7.4844 4.2617c-0.37891 0.19141-0.75781 0.28516-1.1367 0.28516z"/>
  <path d="m365.77 348.11c-0.37891 0-0.75781-0.09375-1.1367-0.28516l-7.5781-4.4062c-1.0898-0.61719-1.4219-1.9883-0.80469-3.0781 0.61719-1.0898 1.9883-1.4219 3.0781-0.80469l7.5781 4.4062c1.0898 0.61719 1.4219 1.9883 0.80469 3.0781-0.42578 0.71094-1.1836 1.0898-1.9414 1.0898z"/>
  <path d="m423.74 326.51h-6.9141c-1.2305 0-2.2266-0.99609-2.2266-2.2266 0-1.2305 0.99609-2.2266 2.2266-2.2266h6.9141c1.2305 0 2.2266 0.99609 2.2266 2.2266 0 1.2344-0.99609 2.2266-2.2266 2.2266z"/>
  <path d="m423.74 343.75h-6.9141c-1.2305 0-2.2266-0.99609-2.2266-2.2266 0-1.2305 0.99609-2.2266 2.2266-2.2266h6.9141c1.2305 0 2.2266 0.99609 2.2266 2.2266 0 1.2344-0.99609 2.2266-2.2266 2.2266z"/>
  <path d="m423.74 360.99h-6.9141c-1.2305 0-2.2266-0.99609-2.2266-2.2266s0.99609-2.2266 2.2266-2.2266h6.9141c1.2305 0 2.2266 0.99609 2.2266 2.2266 0 1.2344-0.99609 2.2266-2.2266 2.2266z"/>
  <path d="m423.74 378.23h-6.9141c-1.2305 0-2.2266-0.99609-2.2266-2.2266s0.99609-2.2266 2.2266-2.2266h6.9141c1.2305 0 2.2266 0.99609 2.2266 2.2266 0 1.2344-0.99609 2.2266-2.2266 2.2266z"/>
 </g>
</svg>
