<?xml version="1.0" encoding="UTF-8"?>
<svg width="752pt" height="752pt" version="1.1" viewBox="0 0 752 752" xmlns="http://www.w3.org/2000/svg">
 <g fill="#ffd65b">
  <path d="m492.64 428.3c20.129 0.79297 41.32 1.5938 62.508 2.4805 6.3008 0.26172 12.613 0.55469 18.871 1.2656 1.8789 0.64062 3.6133 1.6406 5.1133 2.9414-1.6875 1.2617-3.625 2.1523-5.6836 2.6055-8.3203-0.35547-16.613-1.7461-24.922-1.8359-30.102-0.32031-60.203-0.42578-90.309-0.31641-21.281 0.054688-42.559 0.75-63.84 0.70703-27.785-0.058594-55.566-0.76172-83.352-0.81641-20.344-0.042969-40.691 0.61328-61.039 0.75781-19.234 0.13672-38.469 0.085937-57.703-0.15234h0.003906c-2.1836-0.64844-4.1992-1.7695-5.9062-3.2812 1.8789-0.86719 3.8711-1.4727 5.9141-1.7891 22.172-0.27344 44.348-0.29297 66.52-0.67578 2.082-0.46484 3.8984-1.7344 5.0508-3.5312 19.887-29.23 50.387-49.559 85.02-56.664 22.621-4.7031 44.266-1.8516 66.348 2.3242v0.003907c23.492 4.4844 45.172 15.703 62.398 32.289 5.5078 5.4609 10.555 11.363 15.09 17.652 0.51172 1.9844 0.48047 4.0664-0.082031 6.0352zm-223.69 0.75 1.1523 1.4375c4.7891 0.1875 9.582 0.54297 14.371 0.53906 24.754-0.035156 49.508-0.19531 74.262-0.22266 5.1875-0.003907 10.375 0.56641 15.559 0.51953 19.395-0.17969 38.789-0.55859 58.184-0.75391 11.473-0.11328 22.949 0.14453 34.414-0.078124 6.9453-0.13672 13.879-0.875 21.512-1.3906-3.5-4.3711-6.418-8.0859-9.4062-11.738l0.003906-0.003906c-10.832-13.438-24.82-23.988-40.719-30.707-10.469-4.125-21.277-7.3477-32.301-9.6211-19.23-4.7031-39.262-5.1172-58.672-1.2148-26.594 5.7227-50.672 19.762-68.75 40.086-3.4727 4.1797-6.6836 8.5703-9.6094 13.145z"/>
  <path d="m197.9 331.94c26.348 15.031 51.41 29.656 71.461 51.301l-0.75 2.2852v-0.003906c-2.0938-0.027344-4.1641-0.44531-6.1055-1.2305-11.969-8.0352-23.723-16.395-35.641-24.512-8.1055-5.5195-16.418-10.73-24.535-16.234-4.5898-3.1172-4.4922-3.2578-4.4297-11.605z"/>
  <path d="m173.83 379.77c26.98 8.4922 53.48 18.441 79.387 29.801l-0.42188 1.9336-9.2344-1.7383 3.7148 3.7422-0.39453 1.5117c-1.8906-0.003907-3.7734-0.23438-5.6094-0.69141-13.75-5.2305-27.68-10.09-41.066-16.145h0.003907c-8.8477-4.5-17.434-9.4961-25.719-14.961-0.63281-0.53125-1.1797-1.1562-1.625-1.8516z"/>
  <path d="m240.05 281.32c2.0469 1.1094 3.9414 2.4805 5.6367 4.0781 9.4453 13.035 18.785 26.145 28.027 39.324 5.6016 8.0312 11.102 16.156 16.215 24.5 2.9453 4.8047 5.0312 10.137 7.5977 15.426-7.8047-2.3867-54.688-69.539-57.477-83.328z"/>
  <path d="m513.99 288.58c-1.3789 2.9023-2.7578 5.8047-4.1836 8.8047 4.7227 0.79297 3.6094 3.543 2.0391 6.4922-8.9141 16.754-17.852 33.496-26.672 50.301-1.5352 2.9297-2.2578 6.3008-3.8867 9.1602-1.2305 1.4219-2.707 2.6055-4.3633 3.5-0.55859-1.6562-0.74219-3.418-0.53906-5.1523 4.375-10.34 9.0156-20.566 13.641-30.797 5.5234-12.23 11.043-24.461 16.738-36.613 1.3867-2.4688 2.9688-4.8203 4.7305-7.0391z"/>
  <path d="m435.68 279.94 7.3164-24.047 2.7578 0.59766c-0.019531 2.1016-0.22266 4.1953-0.60937 6.2617-4.5938 16.844-9.4141 33.625-13.934 50.492-1.7109 6.3828-2.6836 12.957-4.2461 19.387v-0.003906c-0.70703 2.0078-1.625 3.9297-2.7422 5.7422l-2.1016-0.55859c-0.058594-3.3125 0.089844-6.625 0.44922-9.9219 3.5781-21.227 7.3203-42.43 11.027-63.637 0.38672-2.9141 0.98828-5.7969 1.793-8.625 0.78516-1.3008 1.8242-2.4297 3.0547-3.3203 0.71484 1.4414 1.1211 3.0156 1.1953 4.6211-1.5664 7.6641-3.4648 15.262-5.2461 22.883z"/>
  <path d="m368.47 252.48c1.5938 28.863 3.1875 57.727 4.7812 86.59l-2.1758 0.77734-0.003906 0.003906c-1.4648-1.9297-2.5703-4.1055-3.2734-6.4219-1.0859-10.812-1.7109-21.672-2.5195-32.512-0.375-11.207-1.332-22.391-2.875-33.504-1.2148-5.4023 0.36719-11.055 4.2148-15.039z"/>
  <path d="m572.91 350.21c-0.73047 1.9883-1.8008 3.832-3.168 5.4492-11.367 9.1602-22.902 18.113-34.414 27.09-3.9062 3.0469-7.8672 6.0273-11.875 8.9453-1.4492 0.95312-2.9492 1.8281-4.4922 2.625l-1.2109-0.96875c0.29297-1.5664 0.91016-3.0547 1.8125-4.3672 10.98-9.5117 21.953-19.043 33.258-28.164 5.6328-4.543 11.949-8.2422 17.953-12.32z"/>
  <path d="m304.16 266.98c1.7148 5.0859 3.4414 10.164 5.1445 15.254 7.0625 21.125 14.121 42.25 21.176 63.375l-0.003906 0.003906c0.50781 0.98047 0.79297 2.0625 0.83594 3.1641-0.38672 1.2383-0.96094 2.4141-1.6992 3.4844-1.0703-0.44141-2.0234-1.1328-2.7734-2.0195-1.1484-2.8945-1.8086-5.9805-2.8008-8.9414-7.3555-21.98-14.801-43.93-22.047-65.949v0.003906c-0.54297-2.5977-0.78516-5.25-0.72656-7.9023z"/>
  <path d="m294.86 462.3c-1.3828 0.80078-2.8672 1.4102-4.418 1.8086-9.0156 0.17969-18.043 0.41406-27.051 0.13672l0.003907 0.003906c-2.082-0.67188-3.9844-1.8008-5.5742-3.3008 1.6836-1.2852 3.625-2.1875 5.6914-2.6484 8.9766 0.44141 17.934 1.3594 26.891 2.2109 1.5469 0.43359 3.043 1.0312 4.457 1.7891z"/>
  <path d="m467.46 462.37c3.3477 0.33594 6.6719 0.85937 9.9609 1.5742 1.0352 0.83594 1.8398 1.9297 2.3281 3.1719-1 0.85156-2.1836 1.4648-3.457 1.7969-6.0625-0.23438-12.113-0.67188-18.152-1.3086-1.3906-0.45703-2.6797-1.1719-3.8008-2.1094 1.0703-0.76953 2.25-1.3789 3.4961-1.8086 3.4219-0.63281 6.9023-0.96094 9.625-1.3164z"/>
  <path d="m380.46 461.29c-0.71484 1.1133-1.6406 2.0703-2.7305 2.8203-7.332 0.42578-14.672 0.76172-22.012 0.875h0.003906c-1.1016-0.39844-1.9375-1.3008-2.2461-2.4297 0.28125-1.0195 1.0586-1.8242 2.0664-2.1406 7.8555 0.14063 15.707 0.51172 24.918 0.875z"/>
  <path d="m329.15 496.62c-7.0547 2.8789-14.773 3.7383-22.293 2.4805-0.98047-0.30078-1.7383-1.082-2.0195-2.0703 0.10547-1.0391 0.73437-1.957 1.6719-2.4297 7.5078-0.32031 15.023-0.41406 22.535-0.5625z"/>
  <path d="m432.86 497.09c-4.8594 0.69922-8.7852 1.3789-12.738 1.7461h0.003906c-1.043-0.14453-1.9727-0.73438-2.543-1.6172-0.13281-0.83984 0.14453-1.6914 0.74219-2.2969 4.7539-2.7695 10.797-1.8711 14.535 2.168z"/>
 </g>
</svg>
